<svg fill="none" height="24" viewBox="0 0 24 24" width="24" xmlns="http://www.w3.org/2000/svg"><g stroke="#000" stroke-linecap="round" stroke-linejoin="round" stroke-width="2"><path d="m15 21h-10c-1.10457 0-2-.8954-2-2v-11c0-.55228.44772-1 1-1h10c.5523 0 1 .44772 1 1v2.5"/><path d="m9 12c0-.5523.44772-1 1-1h10c.5523 0 1 .4477 1 1v7c0 1.1046-.8954 2-2 2h-8c-1.10457 0-2-.8954-2-2z"/><path d="m12 7v-1c0-1.65685-1.3431-3-3-3-1.65685 0-3 1.34315-3 3v1"/><path d="m13 14v1c0 1.1046.8954 2 2 2 1.1046 0 2-.8954 2-2v-1"/></g></svg>